<svg xmlns="http://www.w3.org/2000/svg" style="visibility: hidden; position: absolute; width: 0; height: 0;"><symbol id="icon-arrow-down-light" viewBox="0 0 12 7.1"><path fill-rule="evenodd" clip-rule="evenodd" d="M6 4.9L1.1 0 0 1.1l6 6 6-6L10.9 0z"/></symbol><symbol id="icon-avatar-adm" viewBox="0 0 64 64"><path fill-rule="evenodd" clip-rule="evenodd" d="M56 0H8a8 8 0 00-8 8v48a8 8 0 008 8h48a8 8 0 008-8V8a8 8 0 00-8-8zm-8.336 54H16.336C13.863 54 12 51.799 12 49.079c.818-8.002 5.5-11.989 11.957-15.093.838-.402 1.715-.72 2.609-.996-3.418-2.105-5.756-6.076-5.756-10.689C20.811 15.508 25.82 10 32 10s11.188 5.508 11.188 12.301c0 4.613-2.336 8.584-5.754 10.689.895.276 1.771.594 2.609.996C46.496 37.09 51.184 41.077 52 49.079 52 51.799 50.139 54 47.664 54zM28 34l2 4-2 10 4 4 4-4-2-10 2-4h-8z"/></symbol><symbol id="icon-avatar-def" viewBox="0 0 64 64"><path clip-rule="evenodd" fill="none" d="M19.5 16.5h24a4 4 0 014 4v24a4 4 0 01-4 4h-24a4 4 0 01-4-4v-24a4 4 0 014-4zM31.5 20.5v24"/><path d="M56 0H8a8 8 0 00-8 8v48a8 8 0 008 8h48a8 8 0 008-8V8a8 8 0 00-8-8zm-8.336 54H16.336C13.863 54 12 51.799 12 49.079c.818-8.002 5.5-11.989 11.957-15.094a19.03 19.03 0 012.609-.995c-3.418-2.105-5.756-6.077-5.756-10.689C20.811 15.508 25.82 10 32 10s11.188 5.508 11.188 12.301c0 4.612-2.336 8.584-5.754 10.689.895.276 1.771.594 2.609.995C46.496 37.09 51.184 41.077 52 49.079 52 51.799 50.139 54 47.664 54z"/></symbol><symbol id="icon-bag-outline" viewBox="0 0 25 41"><path d="M23.5 11H19V6.5C19 2.9 16.1 0 12.5 0S6 2.9 6 6.5V11H1.5c-.8 0-1.5.7-1.5 1.5v27c0 .8.7 1.5 1.5 1.5h22c.8 0 1.5-.7 1.5-1.5v-27c0-.8-.7-1.5-1.5-1.5zM8 6.5C8 4 10 2 12.5 2S17 4 17 6.5V11H8V6.5zM23 38c0 .6-.4 1-1 1H3c-.6 0-1-.4-1-1V14c0-.6.4-1 1-1h3v1c0 .6.4 1 1 1s1-.4 1-1v-1h9v1c0 .6.4 1 1 1s1-.4 1-1v-1h3c.6 0 1 .4 1 1v24z"/></symbol><symbol id="icon-bag" viewBox="0 0 25 41"><path d="M23.5 11H19V6.5C19 2.9 16.1 0 12.5 0S6 2.9 6 6.5V11H1.5c-.8 0-1.5.7-1.5 1.5v27c0 .8.7 1.5 1.5 1.5h22c.8 0 1.5-.7 1.5-1.5v-27c0-.8-.7-1.5-1.5-1.5zM8 14c0 .6-.4 1-1 1s-1-.4-1-1v-1h2v1zm0-7.5C8 4 10 2 12.5 2S17 4 17 6.5V11H8V6.5zM19 14c0 .6-.4 1-1 1s-1-.4-1-1v-1h2v1z" fill-rule="evenodd" clip-rule="evenodd"/></symbol><symbol id="icon-basket-outline" viewBox="0 0 34 34"><path d="M32.2 13H26c0-.1 0-.2-.1-.3l-6-10.4c-.3-.5-.9-.6-1.4-.4-.5.3-.6.9-.4 1.4l5.6 9.7H10.3l5.6-9.7c.3-.5.1-1.1-.4-1.4-.5-.3-1.1-.1-1.4.4l-6 10.4c-.1.1-.1.2-.1.3H1.8c-1 0-1.8.5-1.8 1.5 0 .9.7 1.5 1.8 1.5l2 13c.2 1 1 2 2 2H28c1 0 1.8-1 2-2l2-13c1 0 1.8-.6 1.8-1.5.2-.9-.6-1.5-1.6-1.5zm-4 15.3c-.1.4-.4.7-.8.7H6.5c-.3 0-.7-.3-.8-.7L3.7 15h26.6l-2.1 13.3z"/></symbol><symbol id="icon-basket" viewBox="0 0 34 30"><path d="M34 13.1c0-1.1-1-2-2.1-2h-5.3L20.5.3c-.3-.5-1.3-.2-1.7.1-.5.3-1.4.7-1.1 1.2l5.3 9.5H11l5.3-9.5c.3-.5-.6-1-1-1.3-.5-.3-1.6-.5-1.8 0L7.4 11.1H2.1c-1.1 0-2.1 1-2.1 2v1c0 .9 1.1 1.8 2.1 1.8L4 28.1c.2 1 1.8 1.9 3 1.9h20c1.7 0 3-.9 3-1.9l1.9-12.2c.9-.2 2.1-.8 2.1-1.8v-1z"/></symbol><symbol id="icon-cart-outline" viewBox="0 0 34 34"><path d="M7 29c-1.1 0-2 .9-2 2s.9 2 2 2 2-.9 2-2-.9-2-2-2zM32.7 4H6.8s-.3-1.6-.6-2.8C6 .2 5.2 0 4.7 0H1.1C.5 0 0 .2 0 .9v.4c0 .5.4.7 1 .7h3l4.3 18.5s-.5.8-1.6 2.5c-.5.7-.7 1.4-.7 2 0 1.3 1.1 2 2.6 2h16.8c.8 0 1.5-.2 1.5-1.1 0-.8-.7-.9-1.5-.9H9.3c-.5 0-.7-.4-.7-.9 0-.3.4-.8.4-.8l.9-1.3H25c1.3 0 2.4-1.1 2.9-2l5.7-13.4c.2-.3.4-.8.4-1.3.1-.8-.5-1.3-1.3-1.3zm-5.9 14c-.6 1.1-1 2-2.1 2H10.3l-3-14h23.2c.6 0 1 .4 1 1l-4.7 11zM24 29c-1.1 0-2 .9-2 2s.9 2 2 2 2-.9 2-2-.9-2-2-2z"/></symbol><symbol id="icon-cart" viewBox="0 0 34 37"><path d="M8 31c-1.6 0-3 1.3-3 3s1.3 3 3 3c1.6 0 3-1.3 3-3 0-1.6-1.4-3-3-3zm15.9 0c-1.6 0-3 1.3-3 3s1.3 3 3 3c1.6 0 3-1.3 3-3 0-1.6-1.3-3-3-3zm8.8-26H7.8s-.6-2.6-.9-3.8C6.7.2 5.9 0 5.4 0H1.1C.5 0 0 .5 0 1.1V2c0 .6.4 1 1 1h3l4.3 18.5s-.5.8-1.6 2.5c-.5.7-.7 1.4-.7 2 0 2.1 1.5 3 3.3 3h16.2c.8 0 1.5-.7 1.5-1.5s-.7-1.5-1.5-1.5h-15c-.5 0-.9-.3-.9-.8 0-.3.4-.8.4-.8l.9-1.4H25c1.3 0 2.4-1.1 2.9-2l5.7-13.4c.5-.4.4-.6.4-1.1.1-.8-.5-1.5-1.3-1.5z"/></symbol><symbol id="icon-comparison-l" viewBox="0 0 36 36"><path d="M33.9 10.7L18.7 25.9l-8.8-8.8 2.7-2.7 6.1 6.1L31.9 7.4C28.6 3.2 23.7.5 18 .5 8.3.5.5 8.3.5 18S8.3 35.5 18 35.5 35.5 27.7 35.5 18c0-2.6-.5-5.1-1.6-7.3z"/></symbol><symbol id="icon-comparison-m" viewBox="0 0 30 30"><path d="M28.2 9L15.6 21.6l-7.3-7.3 2.2-2.2 5 5 11-10.9C23.8 2.7 19.7.5 15 .5 7 .5.5 7 .5 15S7 29.5 15 29.5 29.5 23 29.5 15c0-2.1-.4-4.2-1.3-6z"/></symbol><symbol id="icon-comparison-s" viewBox="0 0 20 20"><path d="M18.6 6.1l-8.3 8.3-4.7-4.8 1.5-1.5 3.3 3.3 7.2-7.2C15.8 2 13.1.5 10 .5 4.7.5.5 4.7.5 10s4.2 9.5 9.5 9.5 9.5-4.2 9.5-9.5c0-1.4-.3-2.8-.9-3.9z"/></symbol><symbol id="icon-comparison" viewBox="0 0 26 26"><path d="M13 25.5C6.1 25.5.5 19.9.5 13S6.1.5 13 .5c3.7 0 7.2 1.7 9.6 4.6l-9.1 9.1L9 9.7l-2.7 2.7 7.2 7.2L24.6 8.5c.6 1.4.9 2.9.9 4.5 0 6.9-5.6 12.5-12.5 12.5z"/><path d="M13 1c3.4 0 6.7 1.5 8.9 4l-8.4 8.4-3.8-3.7L9 9l-.7.7-2 2-.7.7.7.7 6.5 6.5.7.7.7-.7L24.4 9.4c.4 1.1.6 2.4.6 3.6 0 6.6-5.4 12-12 12S1 19.6 1 13 6.4 1 13 1m0-1C5.8 0 0 5.8 0 13s5.8 13 13 13 13-5.8 13-13c0-1.9-.4-3.8-1.2-5.4L13.5 18.9 7 12.4l2-2 4.5 4.5 9.8-9.8C20.9 2 17.2 0 13 0z"/></symbol><symbol id="icon-cross" viewBox="0 0 64 64"><path fill-rule="evenodd" clip-rule="evenodd" d="M63.869 5.412L58.467.006 31.94 26.529 5.534.123.128 5.529l26.406 26.408L0 58.471l5.407 5.406L31.94 37.343l26.651 26.651L64 58.588 37.347 31.937z"/></symbol><symbol id="icon-dev" viewBox="0 0 5087 1024"><path d="M3925.818 372.736c-5.285-1.453-10.372-2.643-15.393-3.567s-9.91-1.42-14.666-1.42c-5.285 0-10.735.462-16.45 1.42-5.748.991-11.231 2.378-16.516 4.294-21.933 6.673-42.05 20.81-60.449 42.479-18.366 21.669-27.549 53.677-27.549 96.058s9.183 74.389 27.549 96.058c18.399 21.669 38.516 35.84 60.449 42.479 5.285 1.916 10.636 3.369 16.12 4.294a90.706 90.706 0 0016.12 1.42c4.79 0 9.745-.33 15.03-1.057 5.285-.661 10.471-2.048 15.789-3.964 22.891-6.144 43.735-20.051 62.629-41.753 18.828-21.603 28.276-54.173 28.276-97.445s-9.579-75.809-28.639-97.445-39.87-35.609-62.266-41.819zM5020.011 0H66.923C29.927 0 0 29.96 0 66.923V1024h5086.968V66.923c0-36.996-29.96-66.923-66.956-66.923zM750.658 761.955H617.274c-10.769 0-23.915-7.597-29.234-16.946l-71.548-125.39c-5.285-9.315-14.204-9.447-19.819-.264l-76.305 125.919c-5.615 9.15-18.961 16.681-29.729 16.681H262.276c-10.769 0-14.534-7.201-8.39-15.988l160.867-230.796c6.177-8.82 6.177-23.222 0-32.041L271.855 278c-6.144-8.787-2.378-15.955 8.357-15.955h136.291c10.769 0 23.783 7.663 28.969 17.111l52.026 94.373c5.186 9.414 13.675 9.381 18.828 0l52.026-94.34c5.186-9.381 18.234-17.078 28.969-17.078h126.943c10.769 0 14.6 7.267 8.588 16.12L598.08 475.962c-6.078 8.919-6.111 23.387-.066 32.306l161.33 237.634c6.045 8.919 2.18 16.186-8.588 16.186zm572.119-65.734c-45.056 52.422-112.211 78.848-201.431 79.277l-7.168.76c-87.8 0-154.591-26.426-200.407-79.277S845.064 582.491 845.064 512c0-70.028 22.561-131.468 67.617-184.65 45.089-53.05 112.244-79.608 201.497-79.608h7.168c89.187 0 156.375 26.558 201.497 79.608 45.056 53.116 67.584 114.622 67.584 184.65 0 70.491-22.528 131.898-67.617 184.254zm627.051-239.583c-1.42 9.778-3.832 19.654-7.135 29.63-8.588 27.648-26.261 53.017-52.984 76.106-26.756 23.123-66.791 34.684-120.237 34.684h-51.299c-10.769 0-19.555 8.754-19.555 19.489v125.919c0 10.735-8.787 19.489-19.555 19.489h-108.346c-10.735 0-19.489-8.754-19.489-19.489V281.534c0-10.735 8.754-19.489 19.489-19.489h198.788c35.179 0 93.415 11.396 119.907 34.254 26.426 22.792 44.197 48.062 53.281 75.644 3.369 10.075 5.748 19.951 7.168 29.663 1.42 9.778 2.147 18.927 2.147 27.516s-.661 17.837-2.114 27.549zm615.589 239.616c-45.089 52.389-112.244 78.815-201.497 79.277l-7.102.727c-87.866 0-154.591-26.426-200.44-79.277-45.816-52.852-68.707-114.49-68.707-184.981 0-70.028 22.561-131.468 67.617-184.65 45.056-53.05 112.211-79.608 201.497-79.608h7.102c89.187 0 156.375 26.558 201.497 79.608 45.056 53.116 67.617 114.622 67.617 184.65 0 70.491-22.561 131.898-67.65 184.254zm896.826 46.245c0 10.702-8.787 19.489-19.489 19.489h-629.397c-10.735 0-19.555-8.787-19.555-19.489V281.501c0-10.735 8.82-19.489 19.555-19.489h108.346c10.735 0 19.555 8.754 19.555 19.489v340.893c0 10.735 8.82 19.489 19.555 19.489h73.992c10.735 0 19.489-8.754 19.489-19.489V281.567c0-10.735 8.853-19.489 19.588-19.489h108.346c10.735 0 19.555 8.754 19.555 19.489V622.46c0 10.735 8.787 19.489 19.489 19.489h73.992c10.769 0 19.555-8.754 19.555-19.489V281.567c0-10.735 8.82-19.489 19.555-19.489h108.346c10.735 0 19.555 8.754 19.555 19.489v460.932zm638.514-46.245c-45.056 52.389-112.211 78.815-201.497 79.277l-7.102.661c-87.866 0-154.657-26.426-200.44-79.277-45.816-52.852-68.707-114.457-68.707-184.981 0-69.962 22.594-131.468 67.65-184.584 45.089-53.083 112.211-79.608 201.497-79.608h7.135c89.187 0 156.375 26.525 201.497 79.608s67.65 114.622 67.65 184.65c-.066 70.491-22.594 131.898-67.716 184.254zm672.404 46.245c0 10.702-8.82 19.489-19.555 19.489H4645.26c-10.735 0-19.489-8.787-19.489-19.489V401.474c0-10.702-8.853-19.489-19.588-19.489h-119.808c-10.735 0-19.555 8.787-19.555 19.489v340.893c0 10.769-1.652 19.555-3.567 19.555h-124.3c-10.769 0-19.555-8.787-19.555-19.489V281.501c0-10.735 8.787-19.489 19.555-19.489h414.654c10.735 0 19.555 8.754 19.555 19.489v460.932zM2390.445 372.703c-5.285-1.453-10.372-2.643-15.393-3.567s-9.91-1.42-14.633-1.42c-5.285 0-10.735.462-16.45 1.42s-11.231 2.378-16.516 4.294c-21.966 6.673-42.116 20.81-60.449 42.479-18.399 21.669-27.582 53.677-27.582 96.058s9.183 74.389 27.549 96.058c18.333 21.669 38.483 35.84 60.449 42.479 5.285 1.916 10.57 3.369 16.12 4.294a90.079 90.079 0 0016.087 1.42c4.757 0 9.778-.33 15.03-1.057 5.285-.661 10.471-2.048 15.756-3.964 22.891-6.144 43.768-20.051 62.629-41.753 18.828-21.603 28.243-54.173 28.243-97.445s-9.579-75.809-28.639-97.445-39.804-35.609-62.2-41.819zm-1242.673 0a176.212 176.212 0 00-15.36-3.567c-4.955-.991-9.91-1.42-14.666-1.42-5.285 0-10.735.462-16.516 1.42s-11.165 2.378-16.417 4.294c-21.933 6.673-42.083 20.81-60.449 42.479s-27.549 53.677-27.549 96.058 9.183 74.389 27.549 96.058c18.366 21.669 38.516 35.84 60.449 42.479 5.285 1.916 10.636 3.369 16.12 4.294a90.611 90.611 0 0016.087 1.42c4.79 0 9.778-.33 15.03-1.057 5.285-.661 10.471-2.048 15.756-3.964 22.891-6.144 43.768-20.051 62.629-41.753 18.828-21.603 28.276-54.173 28.276-97.445s-9.579-75.809-28.672-97.445c-19.06-21.702-39.804-35.609-62.233-41.819zm651.066 39.308c-2.378-10.042-8.324-19.159-17.903-27.516s-26.029-12.486-49.383-12.486h-13.378c-10.769 0-19.555 8.82-19.555 19.489v75.974c0 10.769 7.399 19.555 16.45 19.555 9.084 0 25.27-.793 36.005-1.817 0 0 16.054-1.553 25.6-8.258 9.579-6.606 15.988-13.774 19.324-21.372 1.916-5.285 3.105-10.24 3.567-14.997.462-4.79.661-8.588.661-11.462s-.099-5.715-.33-8.588c-.198-2.874-.562-5.715-.991-8.588z"/></symbol><symbol id="icon-discount-figure" viewBox="0 0 28 28"><path d="M25.8 20.6c.3.9-.2 1.7-1.2 1.8-1 0-1.8.9-1.8 1.9 0 1-.8 1.6-1.7 1.3-.9-.3-2 .2-2.3 1.1-.3.9-1.2 1.2-2 .6s-1.9-.5-2.6.3c-.6.8-1.6.7-2.1-.1-.5-.8-1.7-1.1-2.5-.6-.9.5-1.7.1-1.9-.8-.2-1-1.2-1.6-2.2-1.4-1 .2-1.7-.5-1.5-1.5.1-1-.6-1.9-1.5-2.1-1-.2-1.4-1-.9-1.9.5-.9.1-2-.7-2.5-.9-.5-1-1.4-.2-2.1.7-.7.8-1.8.2-2.6-.9-.9-.7-1.8.2-2.2.9-.4 1.4-1.4 1-2.4-.3-.9.3-1.7 1.3-1.7s1.8-.9 1.8-1.9c0-1 .8-1.6 1.7-1.3.9.3 2-.2 2.3-1.1.3-.9 1.2-1.2 2-.6s1.9.5 2.6-.3c.6-.8 1.6-.7 2.1.1.5.8 1.7 1.1 2.5.6.9-.5 1.7-.1 1.9.8.2 1 1.2 1.6 2.2 1.4 1-.2 1.7.5 1.5 1.5s.6 1.9 1.5 2.1c1 .2 1.4 1 .9 1.9-.5.9-.1 2 .7 2.5s1 1.4.2 2.1c-.7.7-.8 1.8-.2 2.6.6.8.4 1.7-.5 2.1-.7.4-1.1 1.4-.8 2.4z"/></symbol><symbol id="icon-email" viewBox="0 0 16 12"><path fill-rule="evenodd" clip-rule="evenodd" d="M0 10.5c0 .828.598 1.5 1.333 1.5h13.334c.735 0 1.333-.672 1.333-1.5v-9c0-.827-.598-1.5-1.333-1.5H1.333C.598 0 0 .673 0 1.5v9zm8-2.637L1.537 2.818c-.17-.134-.22-.409-.11-.615.111-.206.34-.265.51-.132L8 6.804l6.063-4.733c.17-.133.399-.074.51.132.11.206.06.481-.11.615L8 7.863zM1.369 10a.355.355 0 01-.307-.198c-.113-.204-.067-.48.102-.616L4.48 6.519c.17-.136.398-.081.51.123.114.205.068.48-.101.617L1.573 9.925A.326.326 0 011.37 10zm13.058-.075c.063.05.134.075.204.075.119 0 .236-.07.307-.198.113-.204.067-.48-.102-.616L11.52 6.519c-.17-.136-.398-.081-.51.123-.114.205-.068.48.101.617l3.316 2.666z"/></symbol><symbol id="icon-fb" viewBox="0 0 18 18"><path d="M15.5 0h-13C1.1 0 0 1.1 0 2.5v13C0 16.9 1.1 18 2.5 18h13c1.4 0 2.5-1.1 2.5-2.5v-13C18 1.1 16.9 0 15.5 0zM15 8.3v2.2h-3V18H9.8v-7.5H8.3V8.3h1.5V5.8c0-1.6.8-2.8 2.7-2.8H15v2.2h-2.3c-.6 0-.7.3-.7.6v2.4h3z"/></symbol><symbol id="icon-gp" viewBox="0 0 18 18"><path d="M15.5 0h-13C1.1 0 0 1.1 0 2.5v13C0 16.9 1.1 18 2.5 18h13c1.4 0 2.5-1.1 2.5-2.5v-13C18 1.1 16.9 0 15.5 0zm-6 15C6 15 3.8 12.3 3.8 9s2.4-6 5.7-6c1.6 0 3 .6 4 1.6-1.3 1.2-1.2 1.3-1.7 1.7-.6-.5-1.3-1.1-2.3-1.1C7.6 5.3 6 7.1 6 9c0 2 1.5 3.7 3.5 3.7 1.9 0 2.9-1.3 3.2-3h-3V7.5h5.4c.5 2.9-.4 7.5-5.6 7.5z" fill-rule="evenodd" clip-rule="evenodd"/></symbol><symbol id="icon-heart-outline" viewBox="0 0 30 28"><path d="M22.4 2C25 2 28 4 28 8.3c0 7.8-9.8 15-13 17.2-3.2-2.2-13-9.4-13-17.2 0-2 .6-3.7 1.7-4.8 1-1 2.4-1.5 3.9-1.5C12.3 2 15 7.1 15 7.1S17.5 2 22.4 2m-.1-2c-2.7 0-5.6 1.4-7.3 4-1.7-2.7-4.6-4-7.3-4C3.7 0 0 2.8 0 8.4 0 19 15 28 15 28s15-9 15-19.6C30 2.8 26.3 0 22.3 0z"/></symbol><symbol id="icon-heart-stroke" viewBox="-251 389 18 18"><path d="M-234 394.8c0-5.5-5.8-6.2-8-2.5-2.2-3.7-8-3-8 2.5 0 6 8 11.2 8 11.2s8-5.1 8-11.2z"/></symbol><symbol id="icon-heart" viewBox="0 0 64 64"><path fill-rule="evenodd" clip-rule="evenodd" d="M32 10.719C23.017-3.123 0-.34 0 20.152c0 22.546 32 41.695 32 41.695s32-19.149 32-41.695C64-.34 40.979-3.123 32 10.719z"/></symbol><symbol id="icon-heart2" viewBox="0 0 18 18"><path d="M17.5 5.6C17.5-.2 11.4-1 9 2.9 6.6-1 .5-.2.5 5.6.5 12 9 17.5 9 17.5s8.5-5.5 8.5-11.9z"/></symbol><symbol id="icon-hint" viewBox="0 0 64 64"><path fill-rule="evenodd" clip-rule="evenodd" d="M29.538 14.769h4.924v4.923h-4.924v-4.923zM29.538 24.615h4.924v24.616h-4.924V24.615z"/><path fill-rule="evenodd" clip-rule="evenodd" d="M24.615 24.615h9.847v4.923h-9.847v-4.923zM24.615 44.308h14.77v4.923h-14.77v-4.923z"/><path fill-rule="evenodd" clip-rule="evenodd" d="M54.154 0H9.846C4.408 0 0 4.409 0 9.846v44.308C0 59.591 4.408 64 9.846 64h44.309C59.592 64 64 59.591 64 54.154V9.846C64 4.409 59.592 0 54.154 0zm4.923 54.154a4.922 4.922 0 01-4.923 4.923H9.846a4.922 4.922 0 01-4.923-4.923V9.846a4.922 4.922 0 014.923-4.923h44.309a4.922 4.922 0 014.923 4.923v44.308z"/></symbol><symbol id="icon-horoshop" viewBox="0 0 152 30"><path d="M117.3 11.1c-.2 0-.3-.1-.5-.1h-.9c-.2 0-.3.1-.5.1-.7.2-1.3.6-1.8 1.3-.5.6-.8 1.6-.8 2.9s.3 2.2.8 2.9c.5.6 1.2 1.1 1.8 1.3.2.1.3.1.5.1h.9c.2 0 .3-.1.5-.1.7-.2 1.3-.6 1.9-1.2.6-.6.8-1.6.8-2.9s-.3-2.3-.9-2.9c-.5-.8-1.1-1.2-1.8-1.4zM150 0H2C.9 0 0 .9 0 2v28h152V2c0-1.1-.9-2-2-2zM22.4 22.8h-4c-.3 0-.7-.2-.9-.5l-2.1-3.7c-.2-.3-.4-.3-.6 0l-2.3 3.8c-.2.3-.6.5-.9.5H7.8c-.3 0-.4-.2-.3-.5l4.8-6.9c.2-.3.2-.7 0-1L8.1 8.3c-.2-.3 0-.5.3-.5h4.1c.3 0 .7.2.9.5l1.6 2.8c.2.3.4.3.6 0L17 8.3c.2-.3.5-.5.9-.5h3.8c.3 0 .4.2.3.5l-4 5.9c-.2.3-.2.7 0 1l4.8 7.1c.1.3 0 .5-.4.5zm17.1-2c-1.3 1.6-3.4 2.4-6 2.4h-.2c-2.6 0-4.6-.8-6-2.4s-2.1-3.4-2.1-5.5.7-3.9 2-5.5 3.4-2.4 6-2.4h.2c2.7 0 4.7.8 6 2.4 1.3 1.6 2 3.4 2 5.5.1 2.1-.5 3.9-1.9 5.5zm18.8-7.2c0 .3-.1.6-.2.9-.3.8-.8 1.6-1.6 2.3-.8.7-2 1-3.6 1h-1.5c-.3 0-.6.3-.6.6v3.8c0 .3-.3.6-.6.6H47c-.3 0-.6-.3-.6-.6V8.4c0-.3.3-.6.6-.6h5.9c1.1 0 2.8.3 3.6 1 .8.7 1.3 1.4 1.6 2.3.1.3.2.6.2.9 0 .3.1.6.1.8s-.1.6-.1.8zm18.4 7.2c-1.3 1.6-3.4 2.4-6 2.4h-.2c-2.6 0-4.6-.8-6-2.4-1.4-1.6-2.1-3.4-2.1-5.5s.7-3.9 2-5.5 3.4-2.4 6-2.4h.2c2.7 0 4.7.8 6 2.4 1.3 1.6 2 3.4 2 5.5.1 2.1-.6 3.9-1.9 5.5zm26.8 1.4c0 .3-.3.6-.6.6H84.1c-.3 0-.6-.3-.6-.6V8.4c0-.3.3-.6.6-.6h3.2c.3 0 .6.3.6.6v10.2c0 .3.3.6.6.6h2.2c.3 0 .6-.3.6-.6V8.4c0-.3.3-.6.6-.6h3.2c.3 0 .6.3.6.6v10.2c0 .3.3.6.6.6h2.2c.3 0 .6-.3.6-.6V8.4c0-.3.3-.6.6-.6h3.2c.3 0 .6.3.6.6v13.8zm19-1.4c-1.3 1.6-3.4 2.4-6 2.4h-.2c-2.6 0-4.6-.8-6-2.4-1.4-1.6-2.1-3.4-2.1-5.5s.7-3.9 2-5.5 3.4-2.4 6-2.4h.2c2.7 0 4.7.8 6 2.4 1.3 1.6 2 3.4 2 5.5.2 2.1-.5 3.9-1.9 5.5zm20.1 1.4c0 .3-.3.6-.6.6h-3.2c-.3 0-.6-.3-.6-.6V12c0-.3-.3-.6-.6-.6H134c-.3 0-.6.3-.6.6v10.2c0 .3 0 .6-.1.6h-3.7c-.3 0-.6-.3-.6-.6V8.4c0-.3.3-.6.6-.6H142c.3 0 .6.3.6.6v13.8zM71.4 11.1c-.2 0-.3-.1-.5-.1H70c-.2 0-.3.1-.5.1-.7.2-1.3.6-1.8 1.3-.5.6-.8 1.6-.8 2.9 0 1.3.3 2.2.8 2.9.5.6 1.1 1.1 1.8 1.3.2.1.3.1.5.1h.9c.2 0 .3-.1.5-.1.7-.2 1.3-.6 1.9-1.2.6-.6.8-1.6.8-2.9s-.3-2.3-.9-2.9-1.1-1.2-1.8-1.4zm-37.1 0c-.2 0-.3-.1-.5-.1h-.9c-.2 0-.3.1-.5.1-.7.2-1.3.6-1.8 1.3s-.8 1.6-.8 2.9c0 1.3.3 2.2.8 2.9.5.6 1.2 1.1 1.8 1.3.2.1.3.1.5.1h.9c.2 0 .3-.1.5-.1.7-.2 1.3-.6 1.9-1.2.6-.6.8-1.6.8-2.9s-.3-2.3-.9-2.9c-.5-.8-1.1-1.2-1.8-1.4zm19.5 1.2c-.1-.3-.2-.6-.5-.8-.3-.2-.8-.4-1.5-.4h-.4c-.3 0-.6.3-.6.6V14c0 .3.2.6.5.6s.8 0 1.1-.1c0 0 .5 0 .8-.2.3-.2.5-.4.6-.6.1-.2.1-.3.1-.4V13v-.3c-.1-.2-.1-.3-.1-.4z"/></symbol><symbol id="icon-horoshop_en" viewBox="-233 356.9 150 30"><path d="M-182 368.1h-.2c-.3 0-.5.2-.5.5v2.1c0 .3.2.5.5.5h.2c.7 0 1.1-.2 1.4-.5.3-.3.4-.6.4-1v-.1-.1-.1-.1c0-.3-.2-.7-.5-.9-.2-.2-.7-.3-1.3-.3zM-115.3 368.1c-.1 0-.3-.1-.4-.1h-.9c-.2 0-.3.1-.5.1-.6.2-1.2.6-1.7 1.2s-.8 1.5-.8 2.7c0 1.2.3 2.1.8 2.7.5.6 1.1 1 1.7 1.2.1.1.3.1.4.1h.8c.1 0 .3-.1.4-.1.6-.2 1.2-.6 1.7-1.2s.8-1.5.8-2.7c0-1.2-.3-2.1-.8-2.7-.3-.6-.9-1-1.5-1.2zM-197.3 368.1c-.1 0-.3-.1-.4-.1h-.9c-.2 0-.3.1-.5.1-.6.2-1.2.6-1.7 1.2s-.8 1.5-.8 2.7c0 1.2.3 2.1.8 2.7.5.6 1.1 1 1.7 1.2.1.1.3.1.4.1h.8c.1 0 .3-.1.4-.1.6-.2 1.2-.6 1.7-1.2s.8-1.5.8-2.7c0-1.2-.3-2.1-.8-2.7-.3-.6-.9-1-1.5-1.2zM-164.4 368.1c-.1 0-.3-.1-.4-.1h-.9c-.2 0-.3.1-.5.1-.6.2-1.2.6-1.7 1.2s-.8 1.5-.8 2.7c0 1.2.3 2.1.8 2.7.5.6 1.1 1 1.7 1.2.1.1.3.1.4.1h.8c.1 0 .3-.1.4-.1.6-.2 1.2-.6 1.7-1.2s.8-1.5.8-2.7c0-1.2-.3-2.1-.8-2.7-.3-.6-.9-1-1.5-1.2z"/><path d="M-85 356.9h-146c-1.1 0-2 .9-2 2v28h150v-28c0-1.1-.9-2-2-2zm-124.4 21.4c0 .3-.2.5-.5.5h-3c-.3 0-.5-.2-.5-.5v-4.4c0-.3-.2-.5-.5-.5h-3.4c-.3 0-.5.2-.5.5v4.4c0 .3-.2.5-.5.5h-3c-.3 0-.5-.2-.5-.5v-12.7c0-.3.2-.5.5-.5h3c.3 0 .5.2.5.5v3.9c0 .3.2.5.5.5h3.4c.3 0 .5-.2.5-.5v-3.9c0-.3.2-.5.5-.5h3c.3 0 .5.2.5.5v12.7zm16.9-1.3c-1.2 1.4-3.1 2.2-5.6 2.2h-.2c-2.4 0-4.3-.7-5.5-2.2-1.3-1.5-1.9-3.2-1.9-5.1 0-1.9.6-3.6 1.9-5.1 1.2-1.5 3.1-2.2 5.6-2.2h.2c2.5 0 4.3.7 5.6 2.2 1.2 1.5 1.9 3.2 1.9 5.1-.1 2-.7 3.7-2 5.1zm16.3 1.8h-3.5c-.2 0-.4-.1-.5-.2l-2.1-3.2c-.1-.2-.5-.1-.5.1v2.8c0 .3-.2.5-.5.5h-3c-.3 0-.5-.2-.5-.5v-12.7c0-.3.2-.5.5-.5H-180c.5 0 .9.2 1.5.4s1.2.7 1.7 1.2c.5.6.8 1.6.8 2.7 0 2.5-1.3 3.5-2.9 4l3.3 4.7c.1.3-.2.7-.6.7zm16.6-1.8c-1.2 1.4-3.1 2.2-5.6 2.2h-.2c-2.4 0-4.3-.7-5.5-2.2-1.3-1.5-1.9-3.2-1.9-5.1 0-1.9.6-3.6 1.9-5.1 1.2-1.5 3.1-2.2 5.6-2.2h.2c2.5 0 4.3.7 5.6 2.2 1.2 1.5 1.9 3.2 1.9 5.1-.1 2-.7 3.7-2 5.1zm10.5 2.2c-1.3 0-2.8-.4-3.7-1-.4-.3-.9-.6-1.4-1-.1-.1-.2-.3-.1-.5l1.5-2.4c.1-.2.4-.2.6-.1l.2.2c.4.3 1.7 1.5 2.9 1.5 1 0 1.3-.7 1.3-1.1 0-2.1-5.9-2-5.9-6.2 0-1.2.4-2.1 1.3-2.9.8-.8 2-1.2 3.6-1.2h.2c.4 0 .9.1 1.7.2.6.1 1.5.5 2.1.9.2.1.3.4.2.7l-.9 2c-.1.3-.5.4-.8.2-.3-.2-1.3-.9-2.1-.9-.4 0-1.3.1-1.3 1.1 0 2.1 5.9 1.2 5.9 6.2-.1 2.4-1.9 4.3-5.3 4.3zm21.7-.9c0 .3-.2.5-.5.5h-3c-.3 0-.5-.2-.5-.5v-4.4c0-.3-.2-.5-.5-.5h-3.4c-.3 0-.5.2-.5.5v4.4c0 .3-.2.5-.5.5h-3c-.3 0-.5-.2-.5-.5v-12.7c0-.3.2-.5.5-.5h3c.3 0 .5.2.5.5v3.9c0 .3.2.5.5.5h3.4c.3 0 .5-.2.5-.5v-3.9c0-.3.2-.5.5-.5h3c.3 0 .5.2.5.5v12.7zm16.9-1.3c-1.2 1.4-3.1 2.2-5.6 2.2h-.2c-2.4 0-4.3-.7-5.5-2.2-1.3-1.5-1.9-3.2-1.9-5.1 0-1.9.6-3.6 1.9-5.1 1.2-1.5 3.1-2.2 5.6-2.2h.2c2.5 0 4.3.7 5.6 2.2 1.2 1.5 1.9 3.2 1.9 5.1-.1 2-.7 3.7-2 5.1zm16.6-6.6c0 .3-.1.5-.2.8-.2.8-.7 1.5-1.5 2.1-.7.6-1.8 1-3.3 1h-1.4c-.3 0-.5.2-.5.5v3.5c0 .3-.2.5-.5.5h-3c-.3 0-.5-.2-.5-.5v-12.7c0-.3.2-.5.5-.5h5.5c1.5 0 2.6.3 3.3.9.7.6 1.2 1.3 1.5 2.1.1.3.2.5.2.8 0 .3.1.5.1.8-.1.2-.1.5-.2.7z"/><path d="M-98 369.2c-.1-.3-.2-.5-.5-.8-.3-.2-.7-.3-1.4-.3h-.4c-.3 0-.5.2-.5.5v2.1c0 .3.2.5.5.5h.4c.6 0 1-.1 1.2-.3.3-.2.4-.4.5-.6.1-.1.1-.3.1-.4v-.3-.2c.1 0 .1-.1.1-.2z"/></symbol><symbol id="icon-ig" viewBox="0 0 18 18"><path d="M15.5 0h-13C1.1 0 0 1.1 0 2.5v13C0 16.9 1.1 18 2.5 18h13c1.4 0 2.5-1.1 2.5-2.5v-13C18 1.1 16.9 0 15.5 0zM9 14c-2.8 0-5-2.2-5-5s2.2-5 5-5 5 2.2 5 5-2.2 5-5 5zm5.6-9.3c-.7 0-1.2-.6-1.2-1.2 0-.7.6-1.3 1.2-1.3s1.2.6 1.2 1.3c0 .6-.5 1.2-1.2 1.2zM9 6C7.3 6 6 7.3 6 9s1.3 3 3 3 3-1.3 3-3-1.3-3-3-3z" fill-rule="evenodd" clip-rule="evenodd"/></symbol><symbol id="icon-ks" viewBox="0 0 64 64"><path fill-rule="evenodd" clip-rule="evenodd" d="M34.886-.199H29.11c-.603 0-1.092.489-1.092 1.094v22.113c0 .603.489 1.094 1.092 1.094h5.776c.607 0 1.097-.492 1.097-1.094V.895a1.095 1.095 0 00-1.097-1.094zm28.923 24.391l-.051-.163c-.665-2.156-2.867-3.336-4.915-2.637l-14.533 4.97c-2.048.702-3.172 3.02-2.506 5.176l.05.163c.666 2.157 2.868 3.339 4.916 2.637l14.533-4.97c2.048-.701 3.171-3.019 2.506-5.176zM43.57 44.563c-1.264-1.834-3.705-2.242-5.445-.908l-.131.1c-1.744 1.334-2.13 3.903-.865 5.738l8.983 13.014c1.264 1.835 3.706 2.243 5.445.908l.132-.1c1.744-1.334 2.129-3.903.865-5.738L43.57 44.563zM22.146 31.702l.05-.163c.666-2.156-.458-4.474-2.506-5.176l-14.533-4.97c-2.048-.7-4.25.48-4.915 2.637l-.051.163c-.665 2.157.458 4.474 2.506 5.176l14.529 4.97c2.052.702 4.254-.481 4.92-2.637zm3.86 12.053l-.131-.1c-1.74-1.334-4.182-.926-5.45.908l-8.979 13.014c-1.269 1.835-.879 4.404.865 5.738l.127.1c1.744 1.334 4.187.927 5.45-.908l8.983-13.014c1.265-1.835.879-4.404-.865-5.738z"/></symbol><symbol id="icon-lang-globe" viewBox="0 0 18 18"><path d="M9.9 0H9c-.4 0-.8 0-1.2.1C3.9.6.8 3.7.2 7.6.1 8 0 8.5 0 9c0 .4 0 .9.1 1.3.6 4.3 4.2 7.6 8.6 7.7H9c5 0 9-4 9-9 0-4.7-3.5-8.5-8.1-9zm6.7 8.2c-.1 0-.1 0 0 0-.2-.1-.3-.3-.5-.4-.2-.1-.3-.2-.5-.2s-.4-.2-.6-.4l-.2-.1s.2.5.2.6c0 .1.3.2.6.2 0 0 .2.3.3.4.1.1 0 .2-.2.3-.2.1-.2.1-.2.2-.2.1-.5.2-.6.3-.1.1-.5.2-.7.1-.1-.1-.1-.3-.1-.4-.1-.1-.7-1.1-1-1.5-.1-.1-.2-.3-.3-.4-.1-.1.2-.1.2-.1v-.4V6s-.3.2-.4.2c-.1.1-.2-.1-.3-.3-.1 0-.3-.2-.3-.4s.2-.2.2-.2l.3-.2s.3-.1.6 0c.2 0 .6.1.6.1s.1-.2 0-.3c-.1-.1-.4-.2-.5-.2-.1 0 .1-.2.2-.3l-.3-.1s-.3.2-.4.2c-.1 0-.3.1-.4.2-.1.2 0 .4-.1.4-.1.1-.2.1-.3.1h-.4c-.3 0-.1.3 0 .4l-.2-.3-.4-.3s-.3-.2-.4-.2c-.1-.1-.5-.3-.5-.3v.3l.4.4.2.2h-.4v-.3c-.4 0-.3-.1-.4-.2-.1 0-.3-.2-.3-.2s-.3.1-.4.1c-.1 0-.2.1-.3.2-.2 0-.3.1-.4.2 0 .1-.2.4-.4.5-.1.2-.3.1-.4.1s-.5-.1-.5-.1v-.5s.1-.3 0-.4h.3l.5-.1.1-.1.2-.2S8 4.2 8.1 4c.1-.1.3-.1.5-.2.1-.1.3-.2.3-.2l.4-.4s.2-.1.3-.2c0 0 .5.5.6.5.1 0 .4-.2.4-.2s.1-.3.1-.4c0-.1-.2-.4-.2-.4s-.1.2-.2.3c0 .1-.1.2-.1.2s-.4 0-.4-.1-.1-.2-.1-.3c0-.1-.3-.1-.5 0s0-.3 0-.3.2-.3.3-.3c.1 0 .4-.2.5-.2.1 0 .5-.2.7-.2h.2c3 .8 5.3 3.4 5.7 6.6zm-2.2 2.5c-.1.1-.2.3-.4.5s-.2.3-.3.4c-.1.1-.2.4-.2.4s.1.6.1.7c0 .1-.2.5-.2.5l-.3.3-.3.5v.5s-.3.2-.4.3c-.2.1-.1.2-.3.3-.1.1-.6.3-.7.4-.1 0-.8.1-.8.1V15s-.1-.4-.2-.5c-.1-.1-.1-.3-.2-.5-.2-.2-.2-.3-.2-.4v-.4s.1-.3.2-.5c.1-.1 0-.3-.1-.4-.1 0-.1-.3-.1-.4 0-.1-.2-.2-.3-.3-.1-.1-.1-.2-.1-.3 0-.1-.1-.4-.1-.6 0-.2-.3-.1-.5 0s-.3-.1-.3-.2-.3 0-.6.1c-.2.1-.5.1-.7.2-.2.1-.4-.1-.4-.1s-.2-.2-.4-.3c0-.2-.2-.4-.3-.5-.1-.2-.5-.7-.5-.9v-.5V8c0-.2.1-.3.2-.5s.4-.3.5-.4c.1-.1.3-.2.3-.4 0-.1.1-.2.2-.3.1-.1.4-.4.6-.3 0 0 .2 0 .3-.1.1 0 .3-.1.5-.2.1-.1.4-.1.4-.1s.2.1.3.1c.1 0 .4-.1.4-.1s.1.4.1.5c0 .1.1.2.2.2.2.1.9.2 1.2 0 .1-.1.3.1.3.1s.8.2.9.2c.1.1.3.2.4.2.1.1.3.4.3.5 0 .1.2.4.2.6 0 .1.1.4.2.6.1.2.6.8.8 1.1l.6-.1s-.1.3-.1.4c.1.3-.1.6-.2.7zm.3 2c0 .1 0 .3-.1.5 0 .1-.1.3-.1.5 0 .1-.2.4-.3.4l-.3.3c-.1 0-.2-.2-.1-.3 0-.1.2-.5.2-.5s0-.2.1-.3c0-.1.4-.3.4-.3l.2-.5v.2zm-7.6-9L7 3.5l.1-.3.3.1v-.5l.3-.2.3.4.4.4-.3.2-.7.1v-.3l-.3.3zm-2.9-.6zM2.5 5.2s-.1 0 0 0c0 0 0-.1.1-.2-.1.1-.1.2-.1.2zm-.7 6.1l.1.1c.2.1.1 0 .4.3.2.3.2.3.3.4.1.2.2.3.2.4.1.1.2.2.3.2.1.1.2.1.3.1.1 0 .4.3.5.3.2 0 .2.3.2.3L4 14l-.1.5.1.2c-1.1-.9-1.8-2.1-2.2-3.4z"/></symbol><symbol id="icon-li" viewBox="0 0 18 18"><path d="M15.5 0h-13C1.1 0 0 1.1 0 2.5v13C0 16.9 1.1 18 2.5 18h13c1.4 0 2.5-1.1 2.5-2.5v-13C18 1.1 16.9 0 15.5 0zM5.9 15.2H3.2V7h2.7v8.2zM4.5 5.9C3.6 5.9 3 5.2 3 4.5 3 3.7 3.6 3 4.5 3c1 0 1.5.7 1.6 1.5 0 .7-.6 1.4-1.6 1.4zm11.2 9.3H13v-4.4c0-1.1-.4-1.8-1.4-1.8-.8 0-1.2.5-1.4 1-.1.2-.1.4-.1.7v4.6H7.4V7.1h2.7v1.2c.4-.6 1-1.4 2.5-1.4 1.8 0 3.1 1.2 3.1 3.7v4.6z"/></symbol><symbol id="icon-life" viewBox="0 0 64 64"><path fill-rule="evenodd" clip-rule="evenodd" d="M32 64c-3.53 0-6.923-.582-10.102-1.636 1.921-12.185 11.289-24.659 22.055-28.54a7.1 7.1 0 005.431 2.522 7.113 7.113 0 007.111-7.111 7.114 7.114 0 00-7.111-7.113c-3.861 0-6.997 3.081-7.103 6.916-14.14 3.646-26.471 15.112-31.691 26.74a32.1 32.1 0 01-4.994-5.719c.617-11.759 5.838-24.111 16.029-29.461a7.086 7.086 0 005.24 2.315 7.112 7.112 0 000-14.222 7.109 7.109 0 00-7.11 7.111c0 .248.012.492.035.734C10.809 19.33 4.303 25.646.023 32.858.016 32.572 0 32.289 0 32 0 14.327 14.327 0 32 0s32 14.327 32 32-14.327 32-32 32z"/></symbol><symbol id="icon-location" viewBox="0 0 64 64"><path fill-rule="evenodd" clip-rule="evenodd" d="M56.381 24.381C56.381 10.914 45.468 0 32 0 18.536 0 7.619 10.914 7.619 24.381a24.276 24.276 0 005.355 15.238h-.022L32 64l19.048-24.381h-.021a24.277 24.277 0 005.354-15.238zM32 33.523a9.143 9.143 0 01-9.143-9.143A9.141 9.141 0 0132 15.237a9.143 9.143 0 010 18.286z"/></symbol><symbol id="icon-mobile" viewBox="0 0 64 64"><path fill-rule="evenodd" clip-rule="evenodd" d="M47.059 0H16.941a7.53 7.53 0 00-7.53 7.529v48.942A7.53 7.53 0 0016.941 64h30.117a7.53 7.53 0 007.53-7.529V7.529A7.529 7.529 0 0047.059 0zM35.765 58.353a1.883 1.883 0 01-1.882 1.882h-3.766a1.88 1.88 0 01-1.882-1.882v-3.765c0-1.04.842-1.883 1.882-1.883h3.766c1.036 0 1.882.843 1.882 1.883v3.765zm11.294-13.176a3.765 3.765 0 01-3.765 3.765H20.706a3.765 3.765 0 01-3.765-3.765V11.294a3.763 3.763 0 013.765-3.766h22.588a3.763 3.763 0 013.765 3.766v33.883z"/></symbol><symbol id="icon-mts" viewBox="0 0 64 64"><path fill-rule="evenodd" clip-rule="evenodd" d="M44.649 2.603c-6.263 1.963-8.024 8.957-8.489 13.962C42.976 18.399 48 24.605 48 32.001c0 8.835-7.164 16-16 16s-16-7.164-16-16c0-13.236 9.13-25.895 28.645-29.4A31.89 31.89 0 0032 0C14.325 0 .001 14.328.001 32.001.001 49.672 14.325 64 32 64c17.671 0 31.999-14.328 31.999-31.999 0-13.179-7.97-24.494-19.35-29.398z"/></symbol><symbol id="icon-no-image" viewBox="0 0 164 120"><path fill="#E4E4E4" d="M159 24h-33.5c-2.75 0-6.273-1.854-7.833-4.12L106.833 4.12C105.273 1.854 101.75 0 99 0H66.5c-2.75 0-6.275 1.854-7.833 4.12L47.833 19.88C46.275 22.146 42.75 24 40 24h-2v-1c0-2.75-2.25-5-5-5H17.5c-2.75 0-5.5 2.25-5.5 5v1H5c-2.75 0-5 2.25-5 5v86c0 2.75 2.25 5 5 5h154c2.75 0 5-2.25 5-5V29c0-2.75-2.25-5-5-5zM14 23c0-1.654 1.846-3 3.5-3H33c1.654 0 3 1.346 3 3v1H14v-1zm148 92c0 1.654-1.346 3-3 3H5c-1.654 0-3-1.346-3-3V29c0-1.654 1.346-3 3-3h35c3.394 0 7.559-2.19 9.48-4.987l10.835-15.76C61.507 3.52 64.396 2 66.5 2H99c2.104 0 4.993 1.52 6.186 3.253l10.834 15.76C117.941 23.81 122.105 26 125.5 26H159c1.654 0 3 1.346 3 3v86z"/><path fill="#E4E4E4" d="M82 28c20.953 0 38 17.047 38 38s-17.047 38-38 38-38-17.047-38-38 17.047-38 38-38m0-2c-22.091 0-40 17.909-40 40s17.909 40 40 40 40-17.909 40-40-17.909-40-40-40z"/><path fill="#E4E4E4" d="M82 37c15.991 0 29 13.009 29 29S97.991 95 82 95 53 81.991 53 66s13.009-29 29-29m0-2c-17.12 0-31 13.88-31 31s13.88 31 31 31 31-13.88 31-31-13.88-31-31-31zm49.75 11.5c-2.619 0-4.75-2.131-4.75-4.75s2.131-4.75 4.75-4.75 4.75 2.131 4.75 4.75-2.131 4.75-4.75 4.75zm0-7.5c-1.518 0-2.75 1.233-2.75 2.75s1.232 2.75 2.75 2.75 2.75-1.233 2.75-2.75-1.232-2.75-2.75-2.75z"/></symbol><symbol id="icon-ok" viewBox="0 0 64 64"><path d="M31.999 32.394c8.945 0 16.198-7.25 16.198-16.195C48.197 7.252 40.944 0 31.999 0S15.801 7.252 15.801 16.198c0 8.946 7.253 16.196 16.198 16.196zm0-24.165a7.969 7.969 0 11-.002 15.938 7.969 7.969 0 01.002-15.938zm18.673 26.143c-.919-1.838-3.452-3.366-6.814-.715C39.307 37.244 32 37.244 32 37.244s-7.308 0-11.858-3.587c-3.366-2.651-5.896-1.123-6.811.715-1.596 3.202.203 4.751 4.27 7.36 3.472 2.229 8.241 3.06 11.322 3.374l-2.572 2.57c-3.62 3.623-7.116 7.12-9.544 9.546a3.713 3.713 0 000 5.251l.438.438a3.708 3.708 0 005.25 0l9.548-9.545c3.62 3.624 7.12 7.119 9.548 9.545a3.711 3.711 0 005.251 0l.438-.438a3.715 3.715 0 000-5.253l-9.548-9.544-2.576-2.582c3.081-.314 7.804-1.151 11.244-3.362 4.065-2.609 5.864-4.158 4.272-7.36z"/></symbol><symbol id="icon-phone" viewBox="0 0 64 64"><path d="M32 0C14.328 0 0 14.328 0 32s14.328 32 32 32 32-14.328 32-32S49.672 0 32 0zm15.555 44.121c-.719.684-1.344 1.441-2.063 1.965-1.742 1.246-3.914 1.914-6.438 1.945-2.48.031-4.488-.727-6.32-1.602-3.578-1.711-6.453-4.219-9.188-7.023-2.688-2.766-5.199-6.07-6.672-9.773-1.836-4.625-1.184-9.492 1.328-12.617.422-.531 1.105-1.098 1.727-1.672.625-.586 1.188-1.273 2.086-1.484 2.043-.48 3.492 1.781 4.59 3.344 1.066 1.508 2.375 3.281 1.965 5.328-.223 1.141-1.223 1.805-1.969 2.512-.738.691-1.879 1.355-2.117 2.379-.391 1.672.695 3.359 1.367 4.316 1.516 2.164 3.324 4.098 5.598 5.793 1.098.824 2.625 1.922 4.09 1.559 2.188-.543 2.656-3.293 5.043-3.762 2.273-.445 3.895 1.148 5.234 2.203 1.293 1.023 3.363 2.313 3.305 4.16-.035 1.062-.855 1.757-1.566 2.429z"/></symbol><symbol id="icon-privat" viewBox="0 0 28 28"><path d="M9.395 3.925a12.097 12.097 0 0113.395.197 12.01 12.01 0 014.36 5.45 11.948 11.948 0 01.582 6.943c-.5 2.32-1.68 4.442-3.39 6.095a12.075 12.075 0 01-6.22 3.193 12.106 12.106 0 01-6.955-.786 12.04 12.04 0 01-5.345-4.498L15.944 14 9.395 3.925z" fill="#FFCF00"/><path d="M1.857 19.806a12.332 12.332 0 01-1.524-9.35A12.343 12.343 0 012.35 6.066a12.418 12.418 0 013.554-3.29l6.54 10.527-10.587 6.504z" fill="#00B000"/></symbol><symbol id="icon-pt" viewBox="0 0 18 18"><path d="M9 0C4 0 0 4 0 9c0 3.7 2.2 6.9 5.4 8.2 0-.6 0-1.4.2-2.1.2-.7 1.2-4.9 1.2-4.9s-.4-.5-.4-1.4c0-1.3.8-2.3 1.7-2.3.8 0 1.2.6 1.2 1.4 0 .8-.5 2.1-.8 3.2-.2.9.5 1.7 1.5 1.7 1.7 0 2.9-2.2 2.9-4.8 0-2-1.3-3.4-3.7-3.4-2.7 0-4.4 2-4.4 4.3 0 .8.2 1.3.6 1.8.2.2.2.3.1.5 0 .2-.1.6-.2.7-.1.2-.2.3-.5.2C3.5 11.6 3 10.2 3 8.7 2.9 6.1 5.1 3 9.3 3 12.8 3 15 5.5 15 8.2c0 3.5-2 6.2-4.9 6.2-1 0-1.9-.5-2.2-1.1 0 0-.5 2.1-.6 2.5-.2.7-.6 1.4-.9 1.9.9.2 1.7.3 2.6.3 5 0 9-4 9-9s-4-9-9-9z"/></symbol><symbol id="icon-round-checkbox-outline" viewBox="0 0 30 30"><path d="M15 0C6.7 0 0 6.7 0 15s6.7 15 15 15 15-6.7 15-15S23.3 0 15 0zm0 28C7.8 28 2 22.2 2 15S7.8 2 15 2c4.8 0 8.9 2.6 11.2 6.4l-.5-.5-10.2 10.2-4.2-4.2-1.4 1.4 5.7 5.7 1.4-1.4 9.9-9.9c.8 1.7 1.2 3.5 1.2 5.4C28 22.2 22.2 28 15 28z" fill-rule="evenodd" clip-rule="evenodd"/></symbol><symbol id="icon-round-checkbox" viewBox="0 0 30 30"><path d="M28.3 8.1L15.5 20.9l-5.7-5.7 1.4-1.4 4.2 4.2L27.2 6.3C24.5 2.5 20.1 0 15 0 6.7 0 0 6.7 0 15s6.7 15 15 15 15-6.7 15-15c0-2.5-.6-4.8-1.7-6.9z" fill-rule="evenodd" clip-rule="evenodd"/></symbol><symbol id="icon-search" viewBox="0 0 16.9 16.9"><path d="M16.7 15.3l-4.4-4.4c-.2-.2-.5-.2-.7 0l-.7.7c-.2.2-.2.5 0 .7l4.4 4.4c.2.2.8.4 1.1 0l.3-.3c.4-.3.2-.9 0-1.1z"/><path d="M13 6.5C13 2.9 10.1 0 6.5 0S0 2.9 0 6.5 2.9 13 6.5 13 13 10.1 13 6.5zM6.5 11C4 11 2 9 2 6.5S4 2 6.5 2 11 4 11 6.5 9 11 6.5 11z"/></symbol><symbol id="icon-skype" viewBox="0 0 16 16"><path fill-rule="evenodd" clip-rule="evenodd" d="M15.717 8.084c0 .554-.062 1.094-.178 1.615.295.583.461 1.24.461 1.937C16 14.046 14.018 16 11.575 16c-.757 0-1.47-.188-2.093-.519a7.73 7.73 0 01-1.396.127c-4.216 0-7.632-3.369-7.632-7.524 0-.519.053-1.024.154-1.513A4.305 4.305 0 010 4.363C0 1.953 1.981 0 4.425 0c.866 0 1.673.246 2.355.67.424-.073.86-.11 1.305-.11 4.215 0 7.632 3.368 7.632 7.524zM4.649 4.368c.305-.44.75-.783 1.323-1.018.566-.232 1.239-.35 2.001-.349.609 0 1.144.078 1.592.232.45.155.828.365 1.126.622.3.26.524.538.664.825.141.291.213.581.213.862 0 .27-.094.515-.28.729a.892.892 0 01-.7.324c-.253 0-.45-.068-.587-.203-.127-.125-.26-.32-.408-.6-.17-.358-.375-.64-.612-.839-.23-.193-.612-.29-1.139-.29-.488 0-.886.108-1.182.323-.285.207-.423.442-.423.723a.71.71 0 00.136.44c.097.131.234.247.407.343.18.099.365.179.549.236.19.058.508.143.944.255.553.132 1.06.278 1.508.438.454.16.847.359 1.168.59.325.235.585.538.768.899.185.362.277.81.277 1.33 0 .622-.16 1.189-.477 1.685-.315.495-.78.886-1.385 1.165-.6.275-1.316.414-2.132.414-.98 0-1.801-.19-2.443-.567a3.324 3.324 0 01-1.122-1.104c-.29-.462-.437-.922-.437-1.364 0-.277.096-.517.284-.713a.948.948 0 01.712-.294.85.85 0 01.6.232c.159.147.293.365.401.646.121.307.253.566.392.77.134.195.326.36.572.49.247.128.58.195.99.195.565 0 1.027-.134 1.374-.397.34-.257.506-.564.506-.942 0-.298-.087-.533-.263-.716a1.816 1.816 0 00-.729-.445c-.31-.108-.73-.223-1.25-.344-.71-.168-1.31-.367-1.789-.592-.49-.23-.883-.55-1.172-.95-.293-.404-.441-.914-.441-1.513 0-.57.156-1.085.464-1.528z"/></symbol><symbol id="icon-telegram" viewBox="0 0 64 64"><path d="M41.7 21.3c-.3.1-.7.3-.9.5-6.4 4-12.7 8-19.1 12-.4.2-.4.4-.3.8.5 1.3.9 2.7 1.3 4.1l1.8 5.4h.1v-.2c.2-2 .4-3.9.5-5.9 0-.4.2-.8.5-1 2.6-2.3 5.2-4.7 7.8-7.1 2.9-2.6 5.8-5.2 8.6-7.8.2-.2.3-.4.4-.7-.2 0-.5-.1-.7-.1z"/><path d="M32 0C14.3 0 0 14.3 0 32s14.3 32 32 32 32-14.3 32-32S49.7 0 32 0zm17.5 17.4c-.1 1.1-.4 2.2-.6 3.3-1.8 8.7-3.7 17.4-5.5 26-.4 2.1-1.9 2.6-3.6 1.3-2.8-2.1-5.7-4.2-8.5-6.3-.1-.1-.3-.2-.4-.3-1.5 1.5-3.1 3-4.6 4.4-.5.5-1.1.8-1.9.8-.5 0-.8-.3-1-.7-1.2-3.6-2.3-7.2-3.5-10.7-.1-.3-.3-.5-.6-.6-2.7-.8-5.4-1.7-8.1-2.5-.4-.1-.8-.3-1.2-.6-.6-.4-.6-1-.1-1.4.5-.4 1-.8 1.6-1 3.3-1.3 6.7-2.6 10-3.9 8.5-3.3 16.9-6.5 25.4-9.8 1.5-.6 2.8.3 2.6 2z"/></symbol><symbol id="icon-tg" viewBox="0 0 64 64"><path d="M41.7 21.3c-.3.1-.7.3-.9.5-6.4 4-12.7 8-19.1 12-.4.2-.4.4-.3.8.5 1.3.9 2.7 1.3 4.1l1.8 5.4h.1v-.2c.2-2 .4-3.9.5-5.9 0-.4.2-.8.5-1 2.6-2.3 5.2-4.7 7.8-7.1 2.9-2.6 5.8-5.2 8.6-7.8.2-.2.3-.4.4-.7-.2 0-.5-.1-.7-.1z"/><path d="M32 0C14.3 0 0 14.3 0 32s14.3 32 32 32 32-14.3 32-32S49.7 0 32 0zm17.5 17.4c-.1 1.1-.4 2.2-.6 3.3-1.8 8.7-3.7 17.4-5.5 26-.4 2.1-1.9 2.6-3.6 1.3-2.8-2.1-5.7-4.2-8.5-6.3-.1-.1-.3-.2-.4-.3-1.5 1.5-3.1 3-4.6 4.4-.5.5-1.1.8-1.9.8-.5 0-.8-.3-1-.7-1.2-3.6-2.3-7.2-3.5-10.7-.1-.3-.3-.5-.6-.6-2.7-.8-5.4-1.7-8.1-2.5-.4-.1-.8-.3-1.2-.6-.6-.4-.6-1-.1-1.4.5-.4 1-.8 1.6-1 3.3-1.3 6.7-2.6 10-3.9 8.5-3.3 16.9-6.5 25.4-9.8 1.5-.6 2.8.3 2.6 2z"/></symbol><symbol id="icon-tick" viewBox="0 0 17 12"><path fill-rule="evenodd" clip-rule="evenodd" d="M16.207.793a1 1 0 010 1.414L6.5 11.914.793 6.207a1 1 0 011.414-1.414L6.5 9.086 14.793.793a1 1 0 011.414 0z"/></symbol><symbol id="icon-tw" viewBox="0 0 64 64"><path d="M64 12.664a26.747 26.747 0 01-7.542 2.014c2.714-1.582 4.795-4.09 5.773-7.076m0 0a26.708 26.708 0 01-8.336 3.104c-2.396-2.484-5.81-4.039-9.586-4.039-7.25 0-13.13 5.727-13.13 12.793 0 1 .117 1.977.341 2.914-10.911-.536-20.587-5.626-27.064-13.366a12.47 12.47 0 00-1.776 6.43c0 4.439 2.315 8.354 5.839 10.648a13.358 13.358 0 01-5.945-1.602v.162c0 6.197 4.523 11.367 10.531 12.541a13.547 13.547 0 01-5.93.218c1.672 5.08 6.521 8.779 12.263 8.883-4.492 3.43-10.151 5.477-16.305 5.477A27.22 27.22 0 010 51.585a37.879 37.879 0 0020.128 5.748c24.153 0 37.359-19.492 37.359-36.395 0-.555-.014-1.105-.037-1.658A26.168 26.168 0 0064 12.663"/></symbol><symbol id="icon-viber" viewBox="0 0 64 64"><path d="M32 0C12.702 0 3.816 5.051 3.816 26.667c0 16.124 5.162 23.05 15.716 25.514V64l11.284-10.677c.392.005.782.01 1.183.01 18.622 0 28.184-5.165 28.184-26.667C60.184 5.089 50.455 0 32 0zm16.184 38.232c-1.069 1.232-2.102 2.529-3.368 3.56-1.088.885-2.509.992-3.924.445-11.623-4.49-19.96-12.124-24.768-23.142-.121-.276-.219-.562-.321-.845-.9-2.473-.629-3.433 1.515-5.097a24.711 24.711 0 012.212-1.504c1.279-.786 2.686-.777 3.653.326 1.607 1.833 3.14 3.751 4.459 5.775.985 1.512.633 2.367-.812 3.506-.334.263-.692.499-1.027.761-.836.657-1.189 1.441-.82 2.48 1.616 4.557 4.99 7.439 9.692 8.969.547.178 1.401-.222 1.999-.543.447-.24.708-.786 1.054-1.195.934-1.105 2.444-1.573 3.691-.824 2.229 1.338 4.364 2.824 6.459 4.347.449.327.558 1.072.801 1.575-.195.588-.222 1.092-.495 1.406zM33.736 16.581c-.015-.003-.35-.005-.774-.11-.333-.083-.593-.151-.791-.367a1.008 1.008 0 01-.246-.644c.043-.145.133-.362.34-.521.293-.224.663-.211.837-.203 4.902.232 7.805 2.917 7.805 2.917a12.07 12.07 0 012.221 2.845 12.137 12.137 0 011.527 4.874c.025.253.018.629-.167 1.015-.076.159-.162.334-.364.472a1.088 1.088 0 01-.625.179 1.148 1.148 0 01-.424-.258c-.179-.176-.262-.368-.271-.447-.258-2.129-.611-4.209-1.995-6.007-1.756-2.282-4.244-3.293-7.073-3.745zm6.411 8.09c-.048.617-.313.845-.379.898a1.078 1.078 0 01-.565.216 1.136 1.136 0 01-.572-.27c-.273-.256-.308-.608-.322-.723-.065-.534-.47-2.242-1.393-3.029-.577-.493-1.375-.753-2.542-.913-.469-.064-.923-.154-1.087-.448-.125-.224-.04-.478-.014-.558.192-.585.941-.753 1.001-.765.498.066 3.679.53 5.134 2.768a4.763 4.763 0 01.739 2.824zm8.488 3.892a1.11 1.11 0 01-.476.242c-.18-.038-.463-.124-.68-.349-.294-.306-.31-.703-.318-.84a24.75 24.75 0 00-.69-4.57c-1.383-5.554-6.711-9.937-12.714-10.572a33.454 33.454 0 00-2.098-.177c-.475-.02-.948-.104-1.134-.406-.135-.221-.069-.481-.054-.541.101-.41.495-.593.564-.625.181-.085.343-.097.667-.124 0 0 .279-.017.524-.011 8.317.211 15.5 5.798 16.535 14.262.069.566.187 1.234.221 2.611.006.277.011.778-.347 1.1z"></path></symbol><symbol id="icon-vk" viewBox="0 0 18 18"><path d="M15.5 0h-13C1.1 0 0 1.1 0 2.5v13C0 16.9 1.1 18 2.5 18h13c1.4 0 2.5-1.1 2.5-2.5v-13C18 1.1 16.9 0 15.5 0zm-.9 13h-1.7s-.4.1-.8-.2c-.6-.4-1.2-1.5-1.7-1.4-.4.1-.4 1.1-.4 1.1s0 .2-.1.3c-.1.2-.4.2-.4.2h-.7s-1.6.1-3.1-1.4c-1.6-1.6-3-4.9-3-4.9s-.1-.2 0-.3c.1-.1.4-.1.4-.1h1.8s.2 0 .3.1l.2.2s.2.7.6 1.3c.7 1.3 1.1 1.6 1.3 1.4.4-.2.3-1.8.3-1.8s0-.6-.2-.8c-.2-.2-.4-.3-.6-.3-.1 0 .1-.2.3-.4.3-.1.9-.1 1.6-.1.5 0 .7 0 .9.1.6.2.4.7.4 2.1 0 .4-.1 1.1.2 1.3.1.1.5 0 1.3-1.4.4-.7.7-1.5.7-1.5s.1-.2.2-.2c.1-.1.2 0 .2 0h1.9s.6 0 .7.2c.1.3-.2.9-1 1.9-1.3 1.7-1.4 1.5-.4 2.5 1 .9 1.2 1.4 1.2 1.4.5.6-.4.7-.4.7z" fill-rule="evenodd" clip-rule="evenodd"/></symbol><symbol id="icon-vk2" viewBox="0 0 64 64"><path fill-rule="evenodd" clip-rule="evenodd" d="M52.003 50.032h-.304c-3.242-.528-5.455-2.798-7.34-4.9-1.066-1.189-2.697-3.875-4.645-3.563-2.768.44-1.396 5.119-2.548 7.126-.933 1.622-4.906 1.327-7.644 1.04-8.645-.909-13.061-5.48-16.933-10.395-4.14-5.25-7.361-10.744-10.34-16.779C1.283 20.608.003 18.447 0 16.027c1.401-1.131 3.688-.741 5.996-.741 1.956 0 5.009-.425 6.443.297.853.428 1.714 2.706 2.396 4.156 1.58 3.333 3.032 5.735 4.947 8.465.831 1.184 2.103 3.415 3.596 3.119 1.449-.29 1.583-3.825 1.648-6.088.071-2.569-.003-5.763-.748-7.128-.704-1.286-1.996-1.311-3.297-2.079 1.084-2.161 4.057-2.375 7.644-2.375 3.012 0 7.217-.333 8.393 1.633 1.193 1.999.374 5.609.297 8.314-.083 3.039-.612 6.178 1.499 7.572 1.628-.173 2.504-1.741 3.448-2.968 2.066-2.685 3.347-5.008 4.944-8.465.656-1.418 1.356-3.861 2.548-4.305 1.808-.678 4.694-.148 7.344-.148 2.167 0 6.046-.593 6.74.89.579 1.233-1.122 4.343-1.645 5.198-2.008 3.26-3.979 5.335-6.147 8.166-.864 1.131-2.651 2.944-2.548 4.752.083 1.374 1.473 2.427 2.548 3.415 2.328 2.141 3.962 3.703 5.844 6.087.713.9 2.245 2.847 2.1 4.009-.454 3.628-9.081 1.355-11.987 2.229z"/></symbol><symbol id="icon-warning" viewBox="0 0 29 25"><path fill-rule="evenodd" clip-rule="evenodd" d="M15.904.795c-.625-1.06-2.182-1.06-2.808-.001L.222 22.574c-.628 1.062.151 2.394 1.402 2.395L27.372 25c1.252.002 2.035-1.331 1.406-2.395L15.904.795zM14.051 7a1 1 0 00-.998 1.05l.4 8a1 1 0 00.998.95h.098a1 1 0 00.998-.95l.4-8A1 1 0 0014.95 7h-.898zm.448 15a1.5 1.5 0 100-3 1.5 1.5 0 000 3z"/></symbol><symbol id="icon-whatsapp" viewBox="-233 356.9 128 128"><path d="M-169 356.9c-35.3 0-64 28.7-64 64 0 14 4.5 27 12.2 37.5l-8 23.8 24.6-7.9c10.1 6.7 22.2 10.6 35.2 10.6 35.3 0 64-28.7 64-64s-28.7-64-64-64zm37.3 90.4c-1.5 4.4-7.7 8-12.6 9-3.3.7-7.7 1.3-22.4-4.8-18.8-7.8-30.9-26.9-31.9-28.1-.9-1.2-7.6-10.1-7.6-19.3 0-9.2 4.7-13.7 6.5-15.6 1.5-1.6 4.1-2.3 6.5-2.3.8 0 1.5 0 2.1.1 1.9.1 2.8.2 4.1 3.2 1.5 3.7 5.3 12.9 5.8 13.8.5.9.9 2.2.3 3.5-.6 1.3-1.1 1.8-2.1 2.9-.9 1.1-1.8 1.9-2.8 3.1-.9 1-1.8 2.1-.8 4 1.1 1.8 4.9 8 10.4 12.9 7.1 6.4 12.9 8.4 15 9.3 1.5.6 3.4.5 4.5-.7 1.4-1.5 3.2-4.1 5-6.6 1.3-1.8 2.9-2 4.6-1.4 1.7.6 10.9 5.1 12.8 6.1 1.9.9 3.1 1.4 3.6 2.2.5.6.5 4.3-1 8.7z"/></symbol><symbol id="icon-yt" viewBox="0 0 18 18"><path d="M15 1.4S12 1 8.9 1C6 1 3 1.4 3 1.4c-1.6.3-3 1.6-3 4v7.3c0 2.5 1.2 3.6 3 4 0 0 3.1.4 6.1.4 3 0 5.9-.4 5.9-.4 1.8-.3 3-1.6 3-4V5.4c0-2.5-1.2-3.8-3-4zM7 12V6l5.6 3L7 12z" fill-rule="evenodd" clip-rule="evenodd"/></symbol><symbol viewBox="0 0 16 16" id="icon-arrow-left"><path fill-rule="evenodd" clip-rule="evenodd" d="M11.707 15.707a1 1 0 01-1.414 0l-7-7a1 1 0 010-1.414l7-7a1 1 0 111.414 1.414L5.414 8l6.293 6.293a1 1 0 010 1.414z"></path></symbol><symbol viewBox="0 0 25 24" id="icon-catalog" xmlns="http://www.w3.org/2000/svg"><mask id="ana" fill="#fff"><path fill-rule="evenodd" clip-rule="evenodd" d="M11.5 2a2 2 0 00-2-2h-7a2 2 0 00-2 2v7a2 2 0 002 2h7a2 2 0 002-2V2zm0 13a2 2 0 00-2-2h-7a2 2 0 00-2 2v7a2 2 0 002 2h7a2 2 0 002-2v-7zm2-13a2 2 0 012-2h7a2 2 0 012 2v7a2 2 0 01-2 2h-7a2 2 0 01-2-2V2zm11 13a2 2 0 00-2-2h-7a2 2 0 00-2 2v7a2 2 0 002 2h7a2 2 0 002-2v-7z"></path></mask><path d="M2.5 2h7v-4h-7v4zm0 7V2h-4v7h4zm7 0h-7v4h7V9zm0-7v7h4V2h-4zm-7 13h7v-4h-7v4zm0 7v-7h-4v7h4zm7 0h-7v4h7v-4zm0-7v7h4v-7h-4zm13-17h-7v4h7v-4zm4 11V2h-4v7h4zm-11 4h7V9h-7v4zm-4-11v7h4V2h-4zm4 13h7v-4h-7v4zm0 7v-7h-4v7h4zm7 0h-7v4h7v-4zm0-7v7h4v-7h-4zm0 11a4 4 0 004-4h-4v4zm-11-4a4 4 0 004 4v-4h-4zm11-7h4a4 4 0 00-4-4v4zm-7-4a4 4 0 00-4 4h4v-4zm0-2h-4a4 4 0 004 4V9zm7 0v4a4 4 0 004-4h-4zm-7-11a4 4 0 00-4 4h4v-4zm7 4h4a4 4 0 00-4-4v4zm-13 24a4 4 0 004-4h-4v4zm-11-4a4 4 0 004 4v-4h-4zm11-7h4a4 4 0 00-4-4v4zm-7-4a4 4 0 00-4 4h4v-4zm7 2a4 4 0 004-4h-4v4zm-11-4a4 4 0 004 4V9h-4zm11-7h4a4 4 0 00-4-4v4zm-7-4a4 4 0 00-4 4h4v-4z" mask="url(#ana)"></path></symbol><symbol viewBox="0 0 24 24" id="icon-profile"><path fill-rule="evenodd" clip-rule="evenodd" d="M2 12C2 6.477 6.477 2 12 2s10 4.477 10 10c0 2.312-.785 4.44-2.102 6.134-1.007-1.27-2.636-2.149-4.607-3.008-.1-.044-.15-.065-.193-.112a.358.358 0 01-.073-.149c-.012-.062-.002-.1.016-.178.072-.296.229-.635.415-1.035.441-.951 1.044-2.25 1.044-4.152C16.5 7 14.5 5 12 5S7.5 7 7.5 9.5c0 1.902.603 3.201 1.044 4.152.186.4.343.74.415 1.035a.375.375 0 01.016.178.357.357 0 01-.074.149c-.043.047-.092.068-.192.112-1.97.86-3.6 1.737-4.607 3.008A9.957 9.957 0 012 12zm3.505 7.604A9.96 9.96 0 0012 22a9.96 9.96 0 006.495-2.396 3.54 3.54 0 00-.492-.59c-.728-.71-1.86-1.334-3.512-2.055l-.006-.003c-.033-.014-.159-.068-.28-.135a2.277 2.277 0 01-.943-.987 2.311 2.311 0 01-.204-.607c-.092-.498.011-.9.036-.995l.003-.014c.113-.466.317-.914.457-1.218l.096-.207c.125-.271.24-.519.355-.805A6.445 6.445 0 0014.5 9.5C14.5 8.105 13.395 7 12 7a2.481 2.481 0 00-2.5 2.5c0 1.03.227 1.82.495 2.488.115.286.23.534.355.805l.096.207c.14.304.344.752.457 1.218l.003.014c.025.095.128.497.036.995-.05.269-.141.48-.204.607a2.277 2.277 0 01-.943.987c-.121.067-.247.12-.28.135l-.006.003c-1.653.72-2.784 1.345-3.512 2.056a3.546 3.546 0 00-.492.589zM12 0C5.373 0 0 5.373 0 12s5.373 12 12 12 12-5.373 12-12S18.627 0 12 0z"></path></symbol><symbol fill="none" viewBox="0 0 32 16" id="icon-vk3" xmlns="http://www.w3.org/2000/svg"><path fill-rule="evenodd" clip-rule="evenodd" d="M31.266 1.083C31.488.46 31.266 0 30.207 0h-3.5c-.89 0-1.301.396-1.524.834 0 0-1.78 3.653-4.302 6.026-.816.687-1.187.906-1.632.906-.223 0-.545-.219-.545-.843v-5.84c0-.749-.258-1.083-1-1.083h-5.501c-.556 0-.891.348-.891.677 0 .71 1.261.875 1.391 2.873v4.34c0 .952-.204 1.125-.65 1.125-1.186 0-4.073-3.67-5.785-7.87C5.932.33 5.596 0 4.7 0h-3.5C.2 0 0 .396 0 .834c0 .78 1.187 4.652 5.526 9.773C8.42 14.104 12.495 16 16.204 16c2.225 0 2.5-.421 2.5-1.146V12.21c0-.843.211-1.01.916-1.01.52 0 1.41.218 3.486 1.904C25.48 15.103 25.871 16 27.206 16h3.501c1 0 1.5-.421 1.212-1.252-.316-.828-1.449-2.03-2.953-3.454-.816-.812-2.04-1.686-2.41-2.123-.52-.562-.372-.812 0-1.312 0 0 4.265-5.058 4.71-6.776z" fill="#5181B8"></path></symbol><symbol fill="none" viewBox="0 0 17 32" id="icon-fb2" xmlns="http://www.w3.org/2000/svg"><path d="M11.034 32V17.403h5.013l.75-5.688h-5.763V8.083c0-1.647.468-2.77 2.884-2.77H17V.223C16.467.154 14.638 0 12.51 0 8.067 0 5.025 2.651 5.025 7.52v4.195H0v5.688h5.025V32h6.01z" fill="#3C5A99"></path></symbol><symbol viewBox="0 0 64 64" id="icon-tw2" xmlns="http://www.w3.org/2000/svg"><path d="M64 12.664a26.747 26.747 0 01-7.542 2.014c2.714-1.582 4.795-4.09 5.773-7.076m0 0a26.708 26.708 0 01-8.336 3.104c-2.396-2.484-5.81-4.039-9.586-4.039-7.25 0-13.13 5.727-13.13 12.793 0 1 .117 1.977.341 2.914-10.911-.536-20.587-5.626-27.064-13.366a12.47 12.47 0 00-1.776 6.43c0 4.439 2.315 8.354 5.839 10.648a13.358 13.358 0 01-5.945-1.602v.162c0 6.197 4.523 11.367 10.531 12.541a13.547 13.547 0 01-5.93.218c1.672 5.08 6.521 8.779 12.263 8.883-4.492 3.43-10.151 5.477-16.305 5.477A27.22 27.22 0 010 51.585a37.879 37.879 0 0020.128 5.748c24.153 0 37.359-19.492 37.359-36.395 0-.555-.014-1.105-.037-1.658A26.168 26.168 0 0064 12.663"></path></symbol><symbol viewBox="0 0 24 24" id="icon-phone2" xmlns="http://www.w3.org/2000/svg"><path fill-rule="evenodd" clip-rule="evenodd" d="M12 0C5.373 0 0 5.373 0 12s5.373 12 12 12 12-5.373 12-12S18.627 0 12 0zM2 12C2 6.477 6.477 2 12 2s10 4.477 10 10-4.477 10-10 10S2 17.523 2 12zm12.526 6c1.22 0 2.278-.456 3.137-1.345.891-.975-.183-1.924-.93-2.465-.064-.046-.13-.096-.198-.149-.43-.328-.959-.732-1.66-.635-.485.117-.749.417-1.005.709-.236.267-.465.528-.854.636-.55.106-1.048-.24-1.443-.514l-.067-.047c-.813-.56-1.394-1.232-1.975-2.016-.233-.337-.581-.897-.465-1.457.08-.23.322-.407.541-.568.102-.075.199-.145.272-.216.045-.044.094-.087.145-.132.213-.187.459-.403.552-.765.1-.676-.231-1.186-.548-1.672L9.88 7.13l-.036-.046c-.352-.454-.917-1.182-1.59-1.074-.443.142-1.061.76-1.394 1.12-.89.965-1.162 2.802-.465 4.37.581 1.345 1.51 2.465 2.44 3.474 1.045 1.008 2.09 1.905 3.369 2.465.697.336 1.394.56 2.323.56z"></path></symbol><symbol fill="none" viewBox="0 0 24 24" id="icon-viber2" xmlns="http://www.w3.org/2000/svg"><g clip-path="url(#dcclip0)"><path fill-rule="evenodd" clip-rule="evenodd" d="M12.436.019c5.372.023 7.781 1.772 8.377 2.32 1.978 1.72 3.075 5.527 2.334 11.555-.713 5.84-5.114 6.403-5.892 6.656-.338.108-3.296.848-7.149.525-.575.663-1.166 1.31-1.746 1.97-.557.631-.984 1.116-1.633.913-.647-.197-.61-1.177-.61-1.177l.005-2.418h-.005C.487 18.777.567 12.938.633 9.82c.065-3.117.67-5.634 2.386-7.35C6.103-.36 12.436.02 12.436.02zm1.908 9.675c.019.403.623.375.604-.028-.065-1.346-.792-2.096-2.1-2.166-.398-.023-.436.581-.032.605.993.056 1.476.558 1.528 1.589zm-1.997-3.216c2.358.174 3.6 1.73 3.553 3.717-.01.399.6.418.605.014.051-2.268-1.397-4.139-4.116-4.336-.398-.028-.44.577-.042.605zm5.152 4.35c0 .403.609.399.604-.005-.033-4.115-2.812-6.501-6.267-6.525-.399 0-.399.6 0 .605 3.089.024 5.634 2.105 5.662 5.925zm.075 4.603v-.01c.224-.43.15-.838-.179-1.105-.58-.549-1.457-1.154-2.146-1.543-.511-.285-1.032-.107-1.247.174l-.45.562c-.23.286-.657.249-.657.249-3.117-.797-3.951-3.952-3.951-3.952s-.038-.426.248-.656l.563-.45c.281-.216.46-.736.173-1.247-.443-.773-.97-1.47-1.542-2.151-.277-.333-.69-.408-1.12-.183h-.01c-.895.506-1.875 1.453-1.56 2.428 0 0 .22.806 1.218 2.61.873 1.591 2.002 3.044 3.431 4.173 1.472 1.172 3.802 2.372 4.791 2.648l.01.014c.974.314 1.921-.67 2.427-1.56z" fill="#675DAC"></path></g><defs><clipPath id="dcclip0"><path fill="#fff" d="M0 0h24v24H0z"></path></clipPath></defs></symbol><symbol viewBox="0 0 24 24" id="icon-comparison2" xmlns="http://www.w3.org/2000/svg"><path fill-rule="evenodd" clip-rule="evenodd" d="M22 12c0 5.523-4.477 10-10 10S2 17.523 2 12 6.477 2 12 2a9.99 9.99 0 018.245 4.34L12.5 14.086l-2.793-2.793a1 1 0 00-1.414 1.414l3.146 3.147a1.5 1.5 0 002.122 0l7.68-7.681A9.971 9.971 0 0122 12zm2 0c0 6.627-5.373 12-12 12S0 18.627 0 12 5.373 0 12 0s12 5.373 12 12z"></path></symbol><symbol fill="none" viewBox="0 0 24 24" id="icon-telegram2" xmlns="http://www.w3.org/2000/svg"><path d="M21.182 21.327c.409-1.294 2.516-13.738 2.81-17.656.101-1.16-.826-1.607-1.843-1.351-2.226.56-19.743 8.322-21.6 9.208-.756.394-.708 1.275 0 1.477.744.296 3.212 1.133 4.276 1.379.91.21 1.81.099 2.576-.278.259-.128.492-.294.73-.457 1.694-1.159 8.909-6.09 9.421-6.307.581-.246.796.197.533.591-.563.84-6.291 6.155-7.21 7.14-.626.611-.594 1.339.04 1.857.098.08.204.15.307.222.978.69 6.297 4.436 7.395 5.061.937.628 2.229.177 2.565-.886z" fill="#4191CC"></path></symbol><symbol fill="none" viewBox="0 0 24 24" id="icon-whatsapp2" xmlns="http://www.w3.org/2000/svg"><path fill-rule="evenodd" clip-rule="evenodd" d="M6.308 22.343a11.883 11.883 0 005.684 1.447C18.547 23.79 24 18.458 24 11.903c0-3.18-1.35-6.166-3.593-8.415A11.817 11.817 0 0011.992 0C5.438 0 .105 5.332.098 11.887c0 2.1.547 4.148 1.59 5.948L0 24l6.308-1.657zm9.502-4.793c.57-.082 1.755-.713 2.002-1.41.248-.69.248-1.29.18-1.433-.06-.097-.2-.165-.41-.267l-.16-.077c-.3-.15-1.762-.87-2.032-.968-.27-.098-.473-.15-.668.15-.194.293-.764.967-.937 1.162-.172.203-.345.225-.645.075-1.748-.877-2.895-1.56-4.042-3.532-.171-.291-.06-.407.17-.647.184-.193.446-.465.7-.973.104-.195.052-.367-.023-.517a57.564 57.564 0 01-.55-1.321c-.14-.34-.275-.67-.365-.884-.213-.514-.432-.512-.605-.51h-.062a13.884 13.884 0 00-.57-.008c-.203 0-.525.075-.795.375l-.054.057c-.311.33-.989 1.049-.989 2.426 0 1.462 1.065 2.88 1.215 3.075l.06.085c.379.537 2.256 3.203 5.018 4.4 1.882.81 2.617.884 3.562.742z" fill="#1BD741"></path></symbol><symbol viewBox="0 0 24 24" id="icon-timetable2" xmlns="http://www.w3.org/2000/svg"><path fill-rule="evenodd" clip-rule="evenodd" d="M22 12c0 5.523-4.477 10-10 10S2 17.523 2 12 6.477 2 12 2s10 4.477 10 10zm2 0c0 6.627-5.373 12-12 12S0 18.627 0 12 5.373 0 12 0s12 5.373 12 12zM13 6a1 1 0 10-2 0v6a1 1 0 00.293.707l3.5 3.5a1 1 0 001.414-1.414L13 11.586V6z"></path></symbol><symbol viewBox="0 0 24 24" id="icon-lang2" xmlns="http://www.w3.org/2000/svg"><path fill-rule="evenodd" clip-rule="evenodd" d="M3.853 6.2a9.954 9.954 0 00-1.822 6.588c.082-.042.15-.088.24-.146.085-.056.189-.123.34-.212.406-.24.883-.425 1.606-.43h.002c.733-.004 1.228.475 1.497.797.288.345.512.738.733 1.127l.096.173c.139.25.28.505.466.72.792-.003 1.977.012 2.908.95l.002.003c.575.582.935 1.388.935 2.271 0 .351-.047.741-.083 1.044-.013.103-.024.195-.032.273v.001c-.076.753-.3 1.28-.686 1.8-.142.19-.294.373-.452.552.768.189 1.57.289 2.397.289 5.523 0 10-4.477 10-10a9.97 9.97 0 00-.773-3.86c.005.265.042.533.078.8l.012.086c.046.335.092.721.097 1.113.012.775-.134 1.753-.94 2.489l-2.091 1.912c-1.599 1.461-4.304.63-4.733-1.555a1.005 1.005 0 01-.017-.145s-.1-2.623-.126-2.667a1.298 1.298 0 00-.278-.311 4.102 4.102 0 00-.708-.484c-.866-.473-1.19-1.264-1.258-1.997-.063-.678.083-1.383.204-1.9.065-.28-.464-.487-.668-.403-.112.046-.364.224-.677.824a2.862 2.862 0 01-2.534 1.536h-1.65c-.788 0-1.294-.365-1.658-.746a7.863 7.863 0 01-.333-.38 27.244 27.244 0 00-.094-.112zm1.326-1.512c.062.07.123.142.185.214a9.817 9.817 0 00.375.422c.058.061.108.114.198.114h1.65a.86.86 0 00.762-.462c.41-.783.947-1.442 1.688-1.747.794-.327 1.581-.156 2.248.225.753.431 1.388 1.376 1.13 2.482-.121.516-.19.938-.16 1.261.024.27.1.357.224.425.287.157.699.411 1.07.737.452.397.92.963.95 1.594l.127 2.704c.16.58.95.824 1.407.407l2.092-1.912c.186-.17.297-.444.29-.984a7.386 7.386 0 00-.08-.873 18.616 18.616 0 00-.042-.289c-.037-.243-.074-.488-.087-.732a4.244 4.244 0 01.252-1.592c.102-.288.238-.582.41-.854A9.982 9.982 0 0012 2a9.965 9.965 0 00-6.821 2.688zm2.394 16.281a10.026 10.026 0 01-5.179-6.18l.119-.034c.317-.12.6-.292.885-.465l.229-.138a.956.956 0 01.486-.148c.018.018.04.042.068.075.162.194.332.486.564.895.179.315.4.707.645 1.018.23.294.71.825 1.452.825.947 0 1.335.035 1.657.358.223.227.357.534.357.866 0 .225-.024.423-.055.674-.015.13-.033.274-.05.444-.039.385-.126.57-.301.807-.125.168-.298.36-.557.647-.097.108-.205.226-.32.356zM0 12C0 5.373 5.373 0 12 0s12 5.373 12 12-5.373 12-12 12S0 18.627 0 12z"></path></symbol><symbol fill="none" viewBox="0 0 32 32" id="icon-ig4" xmlns="http://www.w3.org/2000/svg"><path d="M16.004 7.796A8.19 8.19 0 007.8 16a8.19 8.19 0 008.203 8.204A8.19 8.19 0 0024.206 16a8.19 8.19 0 00-8.202-8.204zm0 13.538A5.343 5.343 0 0110.67 16a5.338 5.338 0 015.333-5.334A5.338 5.338 0 0121.336 16a5.343 5.343 0 01-5.332 5.334zM26.454 7.46a1.909 1.909 0 01-1.912 1.914 1.914 1.914 0 111.913-1.914zm5.434 1.942c-.122-2.563-.707-4.834-2.585-6.705C27.433.827 25.163.241 22.6.112c-2.642-.15-10.559-.15-13.2 0C6.844.234 4.574.82 2.697 2.69.819 4.561.24 6.832.112 9.395c-.15 2.642-.15 10.56 0 13.203.122 2.563.707 4.834 2.585 6.705 1.877 1.87 4.14 2.456 6.703 2.584 2.641.15 10.559.15 13.2 0 2.563-.12 4.833-.706 6.703-2.584 1.87-1.871 2.456-4.142 2.585-6.705.15-2.642.15-10.554 0-13.196zm-3.413 16.03a5.4 5.4 0 01-3.041 3.042c-2.106.836-7.103.643-9.43.643-2.328 0-7.332.186-9.43-.643a5.4 5.4 0 01-3.042-3.041c-.835-2.107-.643-7.105-.643-9.433 0-2.328-.185-7.333.643-9.433a5.4 5.4 0 013.041-3.041c2.106-.836 7.103-.643 9.43-.643 2.328 0 7.332-.186 9.431.643a5.4 5.4 0 013.041 3.041c.835 2.107.643 7.105.643 9.433 0 2.328.192 7.333-.643 9.433z" fill="#962FBF"></path></symbol><symbol viewBox="0 0 24 24" id="icon-contacts2" xmlns="http://www.w3.org/2000/svg"><path fill-rule="evenodd" clip-rule="evenodd" d="M2 12C2 6.477 6.477 2 12 2s10 4.477 10 10a9.95 9.95 0 01-1.241 4.83 1.202 1.202 0 00-.114.872l.98 3.924-3.923-.981a1.202 1.202 0 00-.873.114A9.95 9.95 0 0112 22C6.477 22 2 17.523 2 12zM12 0C5.373 0 0 5.373 0 12s5.373 12 12 12c1.987 0 3.864-.484 5.516-1.34l4.918 1.23a1.2 1.2 0 001.455-1.456l-1.23-4.918A11.952 11.952 0 0024 12c0-6.627-5.373-12-12-12zm2.526 18c1.22 0 2.278-.456 3.137-1.345.891-.975-.183-1.924-.93-2.465-.064-.046-.13-.096-.198-.149-.43-.328-.959-.732-1.66-.635-.485.117-.749.417-1.005.709-.236.267-.465.528-.854.636-.55.106-1.048-.24-1.443-.514l-.067-.047c-.813-.56-1.394-1.232-1.975-2.016-.233-.337-.581-.897-.465-1.457.08-.23.322-.407.541-.568.102-.075.199-.145.272-.216.045-.044.094-.087.145-.132.213-.187.459-.403.552-.765.1-.676-.231-1.186-.548-1.672L9.88 7.13l-.036-.046c-.352-.454-.917-1.182-1.59-1.074-.443.142-1.061.76-1.394 1.12-.89.965-1.162 2.802-.465 4.37.581 1.345 1.51 2.465 2.44 3.474 1.045 1.008 2.09 1.905 3.369 2.465.697.336 1.394.56 2.323.56z"></path></symbol><symbol viewBox="0 0 16 14" id="icon-filter" xmlns="http://www.w3.org/2000/svg"><path fill-rule="evenodd" clip-rule="evenodd" d="M0 11a1 1 0 011-1h1.17a3.001 3.001 0 015.664.014c.054-.01.11-.014.166-.014h7a1 1 0 110 2H8c-.057 0-.112-.005-.166-.014A3.001 3.001 0 012.171 12H1a1 1 0 01-1-1zm5 1a1 1 0 110-2 1 1 0 010 2zm6-10a1 1 0 110 2 1 1 0 010-2zm0-2c1.306 0 2.418.835 2.83 2H15a1 1 0 110 2h-1.17a3.001 3.001 0 01-5.664-.014C8.112 3.996 8.056 4 8 4H1a1 1 0 110-2h7c.057 0 .112.005.166.014A3.001 3.001 0 0111 0z"></path></symbol><symbol id="star-active" xmlns="http://www.w3.org/2000/svg" fill="#ffd200" viewBox="0 0 512 512"><path d="M510.37,183.83a21.33,21.33,0,0,0-19.71-13.17H334.79L276,13.84a21.33,21.33,0,0,0-39.95,0L177.21,170.66H21.33A21.33,21.33,0,0,0,6.25,207.08L125.71,326.54,86,485.48A21.34,21.34,0,0,0,119.07,508L256,410.21,392.93,508A21.34,21.34,0,0,0,426,485.48L386.29,326.54,505.75,207.08A21.33,21.33,0,0,0,510.37,183.83Z"></path></symbol><symbol id="star" xmlns="http://www.w3.org/2000/svg" viewBox="0 0 512 512"><defs></defs><polygon points="256 21.33 320 192 490.67 192 362.67 320 405.33 490.66 256 383.99 106.67 490.66 149.33 320 21.33 192 192 192 256 21.33"></polygon><path d="M405.33,512a21.32,21.32,0,0,1-12.4-4L256,410.21,119.07,508A21.34,21.34,0,0,1,86,485.48l39.74-158.95L6.25,207.08a21.33,21.33,0,0,1,15.08-36.42H177.21L236,13.84a21.33,21.33,0,0,1,39.95,0l58.81,156.82H490.67a21.33,21.33,0,0,1,15.08,36.42L386.29,326.54,426,485.48A21.33,21.33,0,0,1,405.33,512ZM256,362.66a21.33,21.33,0,0,1,12.4,4l102.18,73L342,325.17a21.33,21.33,0,0,1,5.61-20.26l91.58-91.58H320a21.34,21.34,0,0,1-20-13.84L256,82.09,212,199.49a21.34,21.34,0,0,1-20,13.84H72.84l91.58,91.58A21.33,21.33,0,0,1,170,325.17L141.42,439.62l102.18-73A21.33,21.33,0,0,1,256,362.66Z"></path></symbol><symbol id="icon-avatar-def" viewBox="0 0 64 64"><path clip-rule="evenodd" fill="none" d="M19.5 16.5h24a4 4 0 014 4v24a4 4 0 01-4 4h-24a4 4 0 01-4-4v-24a4 4 0 014-4zM31.5 20.5v24"></path><path d="M56 0H8a8 8 0 00-8 8v48a8 8 0 008 8h48a8 8 0 008-8V8a8 8 0 00-8-8zm-8.336 54H16.336C13.863 54 12 51.799 12 49.079c.818-8.002 5.5-11.989 11.957-15.094a19.03 19.03 0 012.609-.995c-3.418-2.105-5.756-6.077-5.756-10.689C20.811 15.508 25.82 10 32 10s11.188 5.508 11.188 12.301c0 4.612-2.336 8.584-5.754 10.689.895.276 1.771.594 2.609.995C46.496 37.09 51.184 41.077 52 49.079 52 51.799 50.139 54 47.664 54z"></path></symbol><symbol enable-background="new 0 0 32 32" id="basket" version="1.1" xml:space="preserve" xmlns="http://www.w3.org/2000/svg" xmlns:xlink="http://www.w3.org/1999/xlink" viewBox="0 0 32 32"><g id="trash"><path clip-rule="evenodd" d="M29.98,6.819c-0.096-1.57-1.387-2.816-2.98-2.816h-3v-1V3.001   c0-1.657-1.344-3-3-3H11c-1.657,0-3,1.343-3,3v0.001v1H5c-1.595,0-2.885,1.246-2.981,2.816H2v1.183v1c0,1.104,0.896,2,2,2l0,0v17   c0,2.209,1.791,4,4,4h16c2.209,0,4-1.791,4-4v-17l0,0c1.104,0,2-0.896,2-2v-1V6.819H29.98z M10,3.002c0-0.553,0.447-1,1-1h10   c0.553,0,1,0.447,1,1v1H10V3.002z M26,28.002c0,1.102-0.898,2-2,2H8c-1.103,0-2-0.898-2-2v-17h20V28.002z M28,8.001v1H4v-1V7.002   c0-0.553,0.447-1,1-1h22c0.553,0,1,0.447,1,1V8.001z" fill-rule="evenodd"></path><path clip-rule="evenodd" d="M9,28.006h2c0.553,0,1-0.447,1-1v-13c0-0.553-0.447-1-1-1H9   c-0.553,0-1,0.447-1,1v13C8,27.559,8.447,28.006,9,28.006z M9,14.005h2v13H9V14.005z" fill-rule="evenodd"></path><path clip-rule="evenodd" d="M15,28.006h2c0.553,0,1-0.447,1-1v-13c0-0.553-0.447-1-1-1h-2   c-0.553,0-1,0.447-1,1v13C14,27.559,14.447,28.006,15,28.006z M15,14.005h2v13h-2V14.005z" fill-rule="evenodd"></path><path clip-rule="evenodd" d="M21,28.006h2c0.553,0,1-0.447,1-1v-13c0-0.553-0.447-1-1-1h-2   c-0.553,0-1,0.447-1,1v13C20,27.559,20.447,28.006,21,28.006z M21,14.005h2v13h-2V14.005z" fill-rule="evenodd"></path></g></symbol><symbol version="1.1" id="left" xmlns="http://www.w3.org/2000/svg" xmlns:xlink="http://www.w3.org/1999/xlink" x="0px" y="0px" xml:space="preserve" viewBox="0 0 330 330"><path id="XMLID_18_" d="M315,150l-247.5,0.001V127.5c0-6.067-3.655-11.537-9.26-13.858c-5.607-2.322-12.058-1.038-16.347,3.252l-37.5,37.5c-5.858,5.858-5.858,15.355,0,21.213l37.5,37.5c2.87,2.87,6.706,4.394,10.61,4.394c1.932,0,3.881-0.374,5.737-1.142c5.605-2.322,9.26-7.791,9.26-13.858v-22.499L315,180c8.284,0,15-6.716,15-15C330,156.716,323.284,150,315,150z"></path></symbol></svg>